<svg xmlns="http://www.w3.org/2000/svg" viewBox="0 0 820 380" width="820" height="380" font-family="'Segoe UI','Yu Gothic UI',sans-serif">
  <rect width="820" height="380" fill="#ffffff" rx="8"/>
  <text x="410" y="32" text-anchor="middle" font-size="16" font-weight="bold" fill="#333">境界値テスト結果: zipfldr.dll vs Expand-Archive vs tar.exe</text>
  <!-- Y axis labels -->
  <text x="85" y="87" text-anchor="end" font-size="12" fill="#333">258 bytes</text>
  <text x="85" y="137" text-anchor="end" font-size="12" fill="#333">259 bytes</text>
  <text x="85" y="187" text-anchor="end" font-size="12" font-weight="bold" fill="#c62828">260 bytes</text>
  <text x="85" y="237" text-anchor="end" font-size="12" fill="#333">261 bytes</text>
  <text x="85" y="287" text-anchor="end" font-size="12" fill="#333">262 bytes</text>
  <!-- Column headers -->
  <text x="240" y="60" text-anchor="middle" font-size="12" font-weight="bold" fill="#555">zipfldr.dll</text>
  <text x="240" y="73" text-anchor="middle" font-size="10" fill="#888">(エクスプローラー)</text>
  <text x="460" y="60" text-anchor="middle" font-size="12" font-weight="bold" fill="#555">Expand-Archive</text>
  <text x="460" y="73" text-anchor="middle" font-size="10" fill="#888">(.NET / PowerShell)</text>
  <text x="670" y="60" text-anchor="middle" font-size="12" font-weight="bold" fill="#555">tar.exe</text>
  <text x="670" y="73" text-anchor="middle" font-size="10" fill="#888">(libarchive)</text>
  <!-- Grid lines -->
  <line x1="100" y1="95" x2="780" y2="95" stroke="#eee" stroke-width="1"/>
  <line x1="100" y1="145" x2="780" y2="145" stroke="#eee" stroke-width="1"/>
  <line x1="100" y1="195" x2="780" y2="195" stroke="#ffcdd2" stroke-width="2" stroke-dasharray="5,3"/>
  <line x1="100" y1="245" x2="780" y2="245" stroke="#eee" stroke-width="1"/>
  <line x1="100" y1="295" x2="780" y2="295" stroke="#eee" stroke-width="1"/>
  <!-- 260 threshold indicator -->
  <rect x="90" y="173" width="700" height="44" rx="4" fill="#fff8e1" fill-opacity="0.5"/>
  <text x="795" y="192" text-anchor="end" font-size="10" font-weight="bold" fill="#e65100">← MAX_PATH</text>
  <!-- zipfldr.dll column -->
  <!-- 258 OK -->
  <rect x="170" y="78" width="140" height="26" rx="13" fill="#e8f5e9" stroke="#43a047" stroke-width="1.5"/>
  <text x="240" y="96" text-anchor="middle" font-size="12" font-weight="bold" fill="#2e7d32">✅ OK</text>
  <!-- 259 OK -->
  <rect x="170" y="128" width="140" height="26" rx="13" fill="#e8f5e9" stroke="#43a047" stroke-width="1.5"/>
  <text x="240" y="146" text-anchor="middle" font-size="12" font-weight="bold" fill="#2e7d32">✅ OK</text>
  <!-- 260 FAILED -->
  <rect x="170" y="178" width="140" height="26" rx="13" fill="#ffebee" stroke="#c62828" stroke-width="2.5"/>
  <text x="240" y="196" text-anchor="middle" font-size="12" font-weight="bold" fill="#c62828">❌ FAILED</text>
  <!-- 261 FAILED -->
  <rect x="170" y="228" width="140" height="26" rx="13" fill="#ffebee" stroke="#c62828" stroke-width="1.5"/>
  <text x="240" y="246" text-anchor="middle" font-size="12" font-weight="bold" fill="#c62828">❌ FAILED</text>
  <!-- 262 FAILED -->
  <rect x="170" y="278" width="140" height="26" rx="13" fill="#ffebee" stroke="#c62828" stroke-width="1.5"/>
  <text x="240" y="296" text-anchor="middle" font-size="12" font-weight="bold" fill="#c62828">❌ FAILED</text>
  <!-- Expand-Archive column -->
  <!-- 258 OK -->
  <rect x="390" y="78" width="140" height="26" rx="13" fill="#e8f5e9" stroke="#43a047" stroke-width="1.5"/>
  <text x="460" y="96" text-anchor="middle" font-size="12" font-weight="bold" fill="#2e7d32">✅ OK</text>
  <!-- 259 OK -->
  <rect x="390" y="128" width="140" height="26" rx="13" fill="#e8f5e9" stroke="#43a047" stroke-width="1.5"/>
  <text x="460" y="146" text-anchor="middle" font-size="12" font-weight="bold" fill="#2e7d32">✅ OK</text>
  <!-- 260 OK -->
  <rect x="390" y="178" width="140" height="26" rx="13" fill="#e8f5e9" stroke="#43a047" stroke-width="2.5"/>
  <text x="460" y="196" text-anchor="middle" font-size="12" font-weight="bold" fill="#2e7d32">✅ OK</text>
  <!-- 261 OK -->
  <rect x="390" y="228" width="140" height="26" rx="13" fill="#e8f5e9" stroke="#43a047" stroke-width="1.5"/>
  <text x="460" y="246" text-anchor="middle" font-size="12" font-weight="bold" fill="#2e7d32">✅ OK</text>
  <!-- 262 OK -->
  <rect x="390" y="278" width="140" height="26" rx="13" fill="#e8f5e9" stroke="#43a047" stroke-width="1.5"/>
  <text x="460" y="296" text-anchor="middle" font-size="12" font-weight="bold" fill="#2e7d32">✅ OK</text>
  <!-- tar.exe column -->
  <!-- 258 OK -->
  <rect x="600" y="78" width="140" height="26" rx="13" fill="#e8f5e9" stroke="#43a047" stroke-width="1.5"/>
  <text x="670" y="96" text-anchor="middle" font-size="12" font-weight="bold" fill="#2e7d32">✅ OK</text>
  <!-- 259 OK -->
  <rect x="600" y="128" width="140" height="26" rx="13" fill="#e8f5e9" stroke="#43a047" stroke-width="1.5"/>
  <text x="670" y="146" text-anchor="middle" font-size="12" font-weight="bold" fill="#2e7d32">✅ OK</text>
  <!-- 260 OK (different from zipfldr!) -->
  <rect x="600" y="178" width="140" height="26" rx="13" fill="#e8f5e9" stroke="#43a047" stroke-width="2.5"/>
  <text x="670" y="196" text-anchor="middle" font-size="12" font-weight="bold" fill="#2e7d32">✅ OK</text>
  <!-- 261 OK -->
  <rect x="600" y="228" width="140" height="26" rx="13" fill="#e8f5e9" stroke="#43a047" stroke-width="1.5"/>
  <text x="670" y="246" text-anchor="middle" font-size="12" font-weight="bold" fill="#2e7d32">✅ OK</text>
  <!-- 262 OK -->
  <rect x="600" y="278" width="140" height="26" rx="13" fill="#e8f5e9" stroke="#43a047" stroke-width="1.5"/>
  <text x="670" y="296" text-anchor="middle" font-size="12" font-weight="bold" fill="#2e7d32">✅ OK</text>
  <!-- Bottom summary -->
  <rect x="100" y="320" width="620" height="45" rx="8" fill="#fff3e0" stroke="#ff9800" stroke-width="2"/>
  <text x="410" y="340" text-anchor="middle" font-size="12" font-weight="bold" fill="#e65100">zipfldr.dll だけが 260 バイト以上でエラーになる</text>
  <text x="410" y="358" text-anchor="middle" font-size="11" fill="#bf360c">.NET (Expand-Archive) と libarchive (tar.exe) は LongPath API 対応のため制限なし</text>
</svg>